<mxfile host="app.diagrams.net" agent="Mozilla/5.0 (Windows NT 10.0; Win64; x64) AppleWebKit/537.36 (KHTML, like Gecko) Chrome/135.0.0.0 Safari/537.36" version="26.2.13">
  <diagram name="Page-1" id="ugCeDB0u4khzOY-P50p4">
    <mxGraphModel dx="1038" dy="711" grid="1" gridSize="10" guides="1" tooltips="1" connect="1" arrows="1" fold="1" page="1" pageScale="1" pageWidth="850" pageHeight="1100" math="0" shadow="0">
      <root>
        <mxCell id="0" />
        <mxCell id="1" parent="0" />
        <mxCell id="kOqxKpKcPbEwP-ivYwH9-16" value="" style="ellipse;whiteSpace=wrap;html=1;strokeColor=none;fillColor=light-dark(#000000,#4A98FB);" vertex="1" parent="1">
          <mxGeometry x="220" y="280" width="190" height="180" as="geometry" />
        </mxCell>
        <mxCell id="kOqxKpKcPbEwP-ivYwH9-17" value="" style="rounded=1;whiteSpace=wrap;html=1;fillColor=light-dark(#000000,#4A98FB);strokeColor=none;arcSize=50;" vertex="1" parent="1">
          <mxGeometry x="110" y="380" width="440" height="120" as="geometry" />
        </mxCell>
        <mxCell id="kOqxKpKcPbEwP-ivYwH9-18" value="" style="rounded=1;whiteSpace=wrap;html=1;fillColor=light-dark(#000000,#4A98FB);strokeColor=none;arcSize=50;" vertex="1" parent="1">
          <mxGeometry x="160" y="330" width="320" height="120" as="geometry" />
        </mxCell>
        <mxCell id="kOqxKpKcPbEwP-ivYwH9-21" value="" style="shape=internalStorage;whiteSpace=wrap;html=1;backgroundOutline=1;fillStyle=solid;fillColor=light-dark(#000000,#4E77FF);strokeColor=light-dark(#000000,#000000);strokeWidth=2;" vertex="1" parent="1">
          <mxGeometry x="250" y="360" width="130" height="130" as="geometry" />
        </mxCell>
        <mxCell id="kOqxKpKcPbEwP-ivYwH9-22" value="" style="shape=internalStorage;whiteSpace=wrap;html=1;backgroundOutline=1;fillStyle=solid;fillColor=light-dark(#000000,#4E77FF);strokeColor=light-dark(#000000,#000000);strokeWidth=2;" vertex="1" parent="1">
          <mxGeometry x="270" y="380" width="100" height="100" as="geometry" />
        </mxCell>
        <mxCell id="kOqxKpKcPbEwP-ivYwH9-23" value="" style="shape=internalStorage;whiteSpace=wrap;html=1;backgroundOutline=1;fillStyle=solid;fillColor=light-dark(#000000,#4E77FF);strokeColor=light-dark(#000000,#000000);strokeWidth=2;" vertex="1" parent="1">
          <mxGeometry x="290" y="400" width="80" height="80" as="geometry" />
        </mxCell>
      </root>
    </mxGraphModel>
  </diagram>
</mxfile>
